<svg aria-hidden="true" style="position:absolute;width:0;height:0" xmlns="http://www.w3.org/2000/svg" overflow="hidden">
  <defs>
    <symbol id="icon-menu-burger" viewBox="0 0 40 40">
      <path d="M5 14.1667H35M5 25.8334H35" stroke="#0C0C0C" stroke-width="3" stroke-linecap="round" stroke-linejoin="round"/>
    </symbol>
    <symbol id="icon-menu-close" viewBox="0 0 40 40">
      <path d="M30 10L10 30" stroke="#FBFBFB" stroke-width="3" stroke-linecap="round" stroke-linejoin="round"/>
      <path d="M10 10L30 30" stroke="#FBFBFB" stroke-width="3" stroke-linecap="round" stroke-linejoin="round"/>
    </symbol>
    <symbol id="icon-facebook" viewBox="0 0 6 15">
      <path d="M5.2 0.900098C5.35 0.900098 5.5 0.900098 5.8 0.900098V3.1501C5.65 3.1501 5.35 3.1501 5.05 3.1501C4.75 3.1501 4.45 3.1501 4.3 3.3001C4.15 3.4501 4.14999 3.6001 4.14999 3.9501C4.14999 4.2501 4.14999 4.4501 4.14999 4.7501H5.8V6.6501H4.14999V14.9001H1.60001V6.6001H0.25V4.7001H1.60001V4.0501C1.60001 2.9501 1.75 2.1501 2.05 1.8001C2.5 1.1501 3.4 0.850098 4.75 0.850098C4.9 0.900098 5.05 0.900098 5.2 0.900098Z"/>
    </symbol>
    <symbol id="icon-instagram" viewBox="0 0 34 32">
<path d="M29.517 10.755c-0.016-1.134-0.233-2.212-0.617-3.207l0.021 0.063c-0.681-1.722-2.021-3.059-3.7-3.722l-0.044-0.015c-0.921-0.355-1.985-0.572-3.097-0.595l-0.010-0c-1.366-0.062-1.798-0.078-5.27-0.078s-3.917 0-5.274 0.078c-1.062 0.022-2.112 0.224-3.107 0.595-1.723 0.678-3.062 2.016-3.727 3.693l-0.015 0.044c-0.357 0.919-0.573 1.981-0.595 3.092l-0 0.009c-0.061 1.366-0.080 1.8-0.080 5.264 0 3.467 0 3.91 0.080 5.267 0.021 1.061 0.221 2.109 0.595 3.104 0.682 1.721 2.021 3.057 3.7 3.719l0.044 0.015c0.918 0.37 1.98 0.602 3.091 0.64l0.016 0c1.368 0.059 1.802 0.078 5.274 0.078s3.917 0 5.274-0.080c1.122-0.022 2.188-0.238 3.173-0.615l-0.064 0.022c1.722-0.68 3.060-2.017 3.727-3.693l0.016-0.044c0.356-0.92 0.573-1.983 0.595-3.095l0-0.009c0.061-1.365 0.080-1.798 0.080-5.264-0.003-3.467-0.003-3.907-0.083-5.264zM16.79 22.531c-0.002 0-0.005 0-0.008 0-3.624 0-6.562-2.936-6.565-6.56v-0c0-3.626 2.942-6.562 6.573-6.562 0.001 0 0.003 0 0.005 0 3.624 0 6.563 2.936 6.566 6.56v0c0 3.626-2.944 6.562-6.571 6.562zM23.622 10.696c-0.845 0-1.53-0.685-1.53-1.53s0.685-1.53 1.53-1.53v0c0.845 0 1.53 0.685 1.53 1.53s-0.685 1.53-1.53 1.53v0z"></path>
<path d="M16.792 19.976c2.211 0 4.004-1.793 4.004-4.004s-1.793-4.004-4.004-4.004v0c-2.211 0-4.004 1.793-4.004 4.004s1.793 4.004 4.004 4.004v0z"></path>
</symbol>
    <symbol id="icon-youtube" viewBox="0 0 19 14">
      <path fill-rule="evenodd" clip-rule="evenodd" d="M14.1499 0.749902C13.2999 0.699902 11.5499 0.649902 8.8999 0.649902H8.5499C5.9999 0.649902 4.29992 0.699902 3.44992 0.799902C2.29992 0.899902 1.4999 1.1999 1.0499 1.5999C0.649896 1.9499 0.349908 2.5999 0.249908 3.4499C0.199908 3.9999 0.149902 5.1499 0.149902 6.8999V7.1499C0.149902 8.7999 0.199896 9.9499 0.299896 10.4999C0.449896 11.2999 0.699921 11.8999 1.19992 12.2499C1.69992 12.6499 2.54991 12.8999 3.74991 12.9999C4.59991 13.0499 6.34991 13.0999 8.99991 13.0999H9.34991C11.8999 13.0999 13.5999 13.0499 14.4499 12.9499C15.5999 12.8499 16.3999 12.5499 16.8499 12.1499C17.2499 11.7999 17.5499 11.1499 17.6499 10.2999C17.6999 9.7499 17.7499 8.5999 17.7499 6.8499V6.5999C17.7499 4.9499 17.6999 3.7999 17.5999 3.2499C17.4499 2.4499 17.1999 1.8499 16.6999 1.4999C16.1999 1.0999 15.3499 0.849902 14.1499 0.749902ZM12.1999 6.8999L6.69992 10.1999V3.5999L12.1999 6.8999Z"/>
    </symbol>
  </defs>
</svg>